/* XPM */
static char *_9cb6b791f6d4270acbcbb017c0eadc3msPkOdwZbDLX4qch[] = {
/* columns rows colors chars-per-pixel */
"64 64 221 2 ",
"   c #01000D",
".  c #010015",
"X  c #01051D",
"o  c #00081F",
"O  c #000722",
"+  c #010A24",
"@  c #010E29",
"#  c #080F29",
"$  c #100E29",
"%  c #00122C",
"&  c #09102C",
"*  c #01182F",
"=  c #081728",
"-  c #011631",
";  c #011B34",
":  c #011E39",
">  c #081C39",
",  c #0B1832",
"<  c #141832",
"1  c #00253F",
"2  c #00243E",
"3  c #00253D",
"4  c #01223B",
"5  c #09243B",
"6  c #022A3F",
"7  c #0A2539",
"8  c #15243C",
"9  c #202339",
"0  c #001B41",
"q  c #002741",
"w  c #012741",
"e  c #022641",
"r  c #012541",
"t  c #012341",
"y  c #012842",
"u  c #002942",
"i  c #012A43",
"p  c #002B43",
"a  c #002841",
"s  c #012A45",
"d  c #012A45",
"f  c #002C45",
"g  c #002D47",
"h  c #022A44",
"j  c #0A2B42",
"k  c #002D49",
"l  c #022B49",
"z  c #0A2A48",
"x  c #182D45",
"c  c #03334B",
"v  c #0D344A",
"b  c #06364B",
"n  c #10394D",
"m  c #19334D",
"M  c #003251",
"N  c #023B52",
"B  c #0A3E55",
"V  c #243449",
"C  c #2C3A51",
"Z  c #223C55",
"A  c #242944",
"S  c #0C4256",
"D  c #05455B",
"F  c #0B455C",
"G  c #074B5B",
"H  c #114355",
"J  c #15445B",
"K  c #1D4B5D",
"L  c #1B445D",
"P  c #10545D",
"I  c #0D535A",
"U  c #2A4458",
"Y  c #364559",
"T  c #0B4861",
"R  c #0D5D6C",
"E  c #0A586B",
"W  c #145967",
"Q  c #195269",
"!  c #264F60",
"~  c #3A4D61",
"^  c #2B5A6C",
"/  c #315B69",
"(  c #096778",
")  c #046979",
"_  c #166772",
"`  c #266777",
"'  c #396574",
"]  c #454C5E",
"[  c #454657",
"{  c #464E61",
"}  c #445364",
"|  c #48576A",
" . c #515062",
".. c #5B6B7A",
"X. c #606A7A",
"o. c #097684",
"O. c #147783",
"+. c #047F91",
"@. c #0C6E86",
"#. c #2F7586",
"$. c #547B8B",
"%. c #677281",
"&. c #737987",
"*. c #098896",
"=. c #158E9B",
"-. c #0C939B",
";. c #00969D",
":. c #13949B",
">. c #3A8A94",
",. c #24929B",
"<. c #37959D",
"1. c #0C9DA5",
"2. c #029FAF",
"3. c #1796A3",
"4. c #379AA6",
"5. c #2E96A5",
"6. c #15A7A9",
"7. c #05ACB6",
"8. c #14AFB0",
"9. c #17B7B8",
"0. c #0DB2B2",
"q. c #38ACB5",
"w. c #26B8B9",
"e. c #27ADB7",
"r. c #4C8C9D",
"t. c #6E9CA8",
"y. c #49A9BE",
"u. c #46A7B9",
"i. c #47B8BB",
"p. c #71A7B3",
"a. c #0EC3BF",
"s. c #0EBBC7",
"d. c #4AACC1",
"f. c #4DB6C7",
"g. c #12CDCB",
"h. c #13C3C1",
"j. c #0CDCDB",
"k. c #09DAD8",
"l. c #17D6D5",
"z. c #2AC8CD",
"x. c #38C8C9",
"c. c #2DD7D5",
"v. c #00E5DF",
"b. c #13E5DE",
"n. c #3DE0DB",
"m. c #0ADDE3",
"M. c #25DFE9",
"N. c #02E9E6",
"B. c #08E7E7",
"V. c #12E3E3",
"C. c #11EDEA",
"Z. c #18ECE9",
"A. c #19E7E5",
"S. c #0CF4E9",
"D. c #15F3EC",
"F. c #0BFEFA",
"G. c #0FFAF3",
"H. c #16FAF3",
"J. c #2BEAE7",
"K. c #23F2EC",
"L. c #28FBF6",
"P. c #53C4CD",
"I. c #7EC8CD",
"U. c #6DEFF0",
"Y. c #51EDE9",
"T. c #838E99",
"R. c #88919F",
"E. c #8696A2",
"W. c #979DA5",
"Q. c #9CA4AC",
"!. c #98AAB6",
"~. c #87AEB9",
"^. c #A0A6AE",
"/. c #A4A9B2",
"(. c #ACB3BB",
"). c #A5B2B9",
"_. c #B3B2BB",
"`. c #82B6C5",
"'. c #BDBDC2",
"]. c #C1BBC1",
"[. c #8BCAD8",
"{. c #99CACF",
"}. c #BCC2C7",
"|. c #BBC2C9",
" X c #AFCED4",
".X c #BEDCE0",
"XX c #90E0E4",
"oX c #83FCFC",
"OX c #97FFFF",
"+X c #BBE7EA",
"@X c #BDEDF1",
"#X c #B2FFFF",
"$X c #AFE8EC",
"%X c #C5C2C6",
"&X c #C6C3C9",
"*X c #CAC6CA",
"=X c #C9C8CA",
"-X c #C5CDD5",
";X c #C6D2D7",
":X c #D6D5D8",
">X c #D0C3C7",
",X c #DFDEE0",
"<X c #C1DDE3",
"1X c #C7E7EB",
"2X c #D1F2EE",
"3X c #C5F2F5",
"4X c #C6F3F9",
"5X c #C9F4F9",
"6X c #CAF9FB",
"7X c #D2FEFE",
"8X c #D7F7F8",
"9X c #CEEFF5",
"0X c #EBE9EB",
"qX c #F2EBEC",
"wX c #E2FFFF",
"eX c #ECFEFF",
"rX c #E2F4F5",
"tX c #FBF4F3",
"yX c #F5FFFF",
"uX c white",
"iX c #FFFFFF",
/* pixels */
"@ @ @ % % % % % % % % % - - - - - ; - ; - - ; ; ; ; ; ; : : 4 4 4 4 4 4 4 4 4 4 r r 2 2 2 2 r a a a a a a a h h h h h k k k k k ",
"@ % % % % % % % % % % % % - - - ; - - - - - ; ; ; : : ; 4 : : 4 4 4 4 3 3 4 4 r r 2 2 2 2 2 a a r a a a a p h h h h h h h h h k ",
"% % % % % % % % % % % % - - - - - - ; ; - - ; ; ; ; : : : : : : 4 4 4 4 4 4 4 4 2 2 r r 2 2 r r r r r a a a a a a d d h h h h k ",
"@ @ % % % % % % % % - % % - - ; - - - - - ; ; ; ; ; : : : : : ; 4 4 4 4 4 4 4 4 2 2 2 2 2 2 r r r r r a a a a d a d d d h h k h ",
"@ @ @ @ % % % % % % % - - - - - - - - - - - ; ; ; ; : : : : : : : : 4 4 4 4 4 4 4 4 2 2 2 2 2 2 2 r a r a a a a a a a a d d d a ",
"@ @ @ @ % % % % % % % - - - - * - - - - - - ; ; ; ; : : : : : : : : 4 4 4 4 4 4 3 4 2 2 2 2 2 2 2 r a r a a a a a a a d d d a a ",
"@ @ @ @ @ @ % % % % % - % - - % - - - - - ; ; ; ; ; : : : : : : : : 4 4 4 4 4 4 4 4 4 4 2 2 2 2 2 2 r r r r r r a a a a d d d d ",
"@ @ @ @ @ @ % % % % % - % % % % - - - - - - ; ; ; ; : : ; : ; ; : : 4 4 4 4 4 4 4 4 4 4 2 2 2 2 2 2 r r r r r r a a a a d d d d ",
"@ @ @ @ @ @ % % % % % % % % % % - - - - - - - - ; ; ; ; ; ; ; ; : : : : 4 4 4 4 4 4 4 4 4 4 2 2 2 2 2 2 2 r r r r r a a d d d a ",
"@ @ @ @ @ @ % % % % % % % % % - - - - - - - - - - - ; ; ; ; ; ; : : : : 4 4 4 4 4 4 4 4 4 4 2 2 2 2 2 2 2 2 r 2 r r a a a a a 6 ",
"@ @ @ @ @ @ @ @ % % % % % % % - - - - - - - - - - - - - ; ; : : : : : : : : 4 4 4 4 4 4 4 4 4 4 4 4 2 2 2 2 2 2 2 2 2 2 r r r r ",
"@ @ @ @ @ @ @ @ % @ % % % % % % % - - - - - - - - - - - ; ; ; : : ; : : : : 4 4 4 4 4 4 4 4 4 4 3 4 2 3 2 2 2 2 2 2 2 2 r r 2 2 ",
"@ @ @ @ @ @ @ @ @ @ % % % % % % % - - - - - - - - - - - ; ; ; ; 4 ; ; : : : : : 4 4 4 4 4 4 4 4 4 4 4 4 2 4 4 4 2 2 2 2 2 2 2 2 ",
"@ @ @ @ @ @ @ @ @ @ % % % % % % % % - - - - - - - - - - ; ; ; - + % : ; : : : : 4 4 4 4 4 4 4 4 4 4 4 2 4 4 4 4 2 2 2 2 2 2 2 2 ",
"@ @ @ @ @ @ @ @ @ @ % % % % % % % % - - - - - - * - - - - ; - 5 T.} % ; ; ; : : : : 4 4 4 4 4 4 4 4 4 4 4 4 4 4 4 4 4 4 2 2 2 2 ",
"@ @ @ @ @ @ @ @ @ @ % % % % % % % % - - - - - - - - - - ; 4 % ~ uX}.@ ; 4 : ; : : : 4 4 4 4 4 4 4 4 4 4 4 4 4 4 4 4 4 4 2 2 2 4 ",
"@ @ @ @ @ @ @ @ @ @ @ @ @ % % % % % % - - - - - - - ; % @ % % ! yX}.% ; @ % ; 4 : : : : 4 4 4 4 4 4 4 4 4 4 4 4 4 4 4 4 4 4 4 4 ",
"@ @ @ + @ @ @ @ @ @ @ @ @ % % % % % % % % % - - ; % @ 7 ^ ^ @ U eX%X@ x %.U % @ ; > : : : : 4 4 : 4 4 4 4 4 4 4 4 4 4 4 4 4 4 4 ",
"@ @ + + @ @ @ @ @ @ @ @ @ @ % % % % % % % % - % O m >.c.L.z.@ K eX%XX } uXuX-XX., % 4 : : : : : : : 4 4 4 4 4 4 4 4 4 4 4 4 4 4 ",
"+ + + + @ @ @ @ @ @ @ @ @ @ % % % % % % % - @ > ,.K.D.0.o.b @ J wX%X@ ; | ).yXuX:X} @ : : : : : : : 4 4 4 4 4 4 4 4 4 4 4 4 4 4 ",
"+ O + + @ @ + + @ @ @ @ @ @ % % % % % % - O S l.H.0.G % @ % @ H wX&X@ - + + x E.yXuXR.% ; 4 : : : : : : 4 4 4 4 4 4 4 4 4 4 4 4 ",
"O O + + @ @ + + @ @ @ @ @ @ % % % % % - + T Z.V.( & @ - % H ; B 7X&X+ v H , l o U -XuX(.- ; : : : : : : 4 4 4 4 4 4 4 4 4 4 4 4 ",
"@ @ + + + @ @ @ @ @ @ @ @ @ @ @ % % % + S Z.j.S X @ @ % 5 j @ B 7X&X% 4 ; z ` ; % * !.uX).% : : : : : : : : ; : 4 4 4 4 4 4 4 4 ",
"@ O + + + @ @ @ @ @ @ @ @ @ @ @ % % @ 4 l.b.B O , (.(.% j j @ N 7X].X + X + X @ % - % !.uXT.@ 4 : : : : : ; : : : : : : : 4 4 4 ",
"@ + + O O @ @ @ @ @ @ @ @ @ @ @ @ % O -.G.E X @ ~ uXuXY O - % N 3XqXQ.^.^.Q./.Q...; % = ;XuX~ % : ; : : ; ; : : : : : : : : : : ",
"O @ O O O O @ @ @ @ @ @ @ @ @ @ % O N C.6.X % O %.uXuX .N W X N @XuXuXuXuXuXuXuXuX_.4 D U uX=X% : ; : : ; ; : : : : : : 4 ; ; : ",
"@ O + + O O @ @ @ @ @ @ @ @ @ @ % O -.C.j > z X E.uXuX&.@ 5 @ N 5X:Xo.3.*.=.3.=.I.uX..N @ Q.uX} @ ; ; ; ; ; ; ; ; ; : : ; ; ; ; ",
"+ X + O O @ @ @ @ @ @ @ @ @ @ @ + > j.1.. B F . |.rXrXW.X , X c 6X*XX % | V @ @ E yXW.X @ U uX/.@ ; ; ; ; ; ; ; ; ; ; ; ; ; ; ; ",
"+ + O O O O O O + + @ @ @ @ @ @ X G S.F O @ O % 0X.X1X'.O , U D 3X*X  C uX/.  . $.uX%.@ S % ;X0X4 - ; - ; ; ; ; ; ; ; ; ; ; ; ; ",
"+ + O + O O O O + + @ @ @ @ @ @ X *.b.- X % @ 8 uX{.{.:XX K OXP.+X*X. L wXqX_.&XuX0X8 - _ X E.uXY % ; - ; ; ; ; ; ; ; ; ; ; ; ; ",
"+ + + + O O O O + + @ @ @ @ @ % X W O.% W % O Y uXt.I.qXX #.oXoXwX%X. J 8XyX8X8X1XyX,XV @ % C (.x - ; - - - - - - - - ; ; ; - - ",
"o o + + O O O O @ @ @ @ @ O X X X . . O a X . ..uX$.t.uX& ,.U.U.yX'.X J wX X( ) ) 4.yX}.X @ X . + @ @ % - - - - - - - ; ; ; - - ",
"o o o + o o O O @ @ + @ O & ] ] ] { } ] [ } Y /.uX/ r.uXA 9.n.5.yX'.X b 7X].  X X * {.tX| } | | } } | V % - - - - - - - - - - - ",
"o o o o o o O O + @ + @ . &.uXuXuXuXuXuXuXuXuXuXyXH #.uX] g.w.N 7X*XX c 6X%X@ < # C rXuXuXuXuXuXuXuXuX;X% - - - - - - - - - - - ",
"+ X o o + o O O + @ @ @ X K f.y.y.y.y.y.d.y.u.y.q.; ` uX..k.6.- 3X*XX b @XuXtXtXtXuXuXp.u.d.y.y.y.y.f.4.% - - - - - - - - - - - ",
"+ X o o + + O O + @ @ @ + O : 4 4 4 4 : : : : 4 ; . Q uXt.v.O.% 5X&XX c $X2X[.[.[.~.x.;.- 2 2 2 t 4 a ; % - - - - - - - - - - - ",
"+ X O + + + o o O O O O O O X X X .   X = . X X + X T eX{.N.R - 5X&XX c Y.i.t M 0 t N.1.. % X . X X + @ - - - - - - - - - - - - ",
"+ X X X + + o + O O O O O O + @ X ` r.& P O @ @ @ X M 8X+XN.S : 4X%X. c N.a.H P I 9.F.D 7 6 n i.8 + % % % - - - - - - - - - - - ",
"X X X X X X + + + + O O O O O @ X ) L.V . @ O n % O y <X7XB.j : 4X%XX c j.S.G.G.G.C.o.+ % X -.H.n X % % % % - - - - % % - - % % ",
"X X X X X X + + + + O O O O O @ X t j.>.X @ , % @ + ; {.wXk., 4 4X%X. z B.g.@.) S , . j W - l.9.@ % % % % % % % % % % % - % % % ",
"X X X X X X X O + + O O O O + @ @ O *.J.9 X v % X + @ `.yXg.@ y 4X%XX z B.8.X @ X % v - @ ( D.R X % % % % % % % % % % % % % % % ",
"X X X X X X X O + + O O O O @ @ @ X c m.4.X @ @ P @ O p.yXw.O d 4X&X. z V.6.X @ + 7 W @ : l.9.% @ % % % % % % % % % % % % % % % ",
"X X X X X X X O + o o o O O O O O + O o.H.' . % S @ X 5.#Xq.. d 3X%XX z V.8.X @ @ @ X @ 8.Z.S X % % % % % % % % % % % % % % % % ",
"X X X X X X X + + + o o O O O O O + O & 2.K.Y . O @ O E z.O.X a 3X&X. > l.6.X ; _ @ O -.G.o.X % @ % % % % % % % % % % % % % % % ",
"X X X X X X X X X X + + O O O O O O @ X > 7.J./ . - , + 6 @ O 6 3X%X. @ T v @ % @ + 1.F.*.+ @ @ @ @ @ @ @ @ % % % % % % % % % % ",
"X X X X X X X X X X + + O O O O O O O + X t 7.K.>.$ . O O 5 + t 3X%XX + X O O X v h.F.*.@ @ @ @ @ @ @ @ @ @ % % % % @ % % % % % ",
"X X X X X X X X X X X X O O O O O O O O + X , +.V.x.' < X , + t 3X%X. + X O x :.S.m.( @ @ @ @ @ @ @ @ @ @ @ @ @ @ @ @ @ @ @ % % ",
"X X X X X X X X X X X X O O O O O O O O O + X X D 7.A.c.<.Z O 6 3X%X. , ` e.A.B.1.z X @ @ @ @ @ @ @ @ @ @ @ @ @ @ @ @ @ @ @ % % ",
"X X X X X X X X X X X X O + o O O O O O o + + X X @ D *.k.w.O 2 3X%X  J M.s.+.b O X @ @ @ @ @ @ @ @ @ @ @ @ @ @ @ @ @ @ @ @ @ @ ",
"X X X X X X X X X X X X + + O O o O O o o o + + + X X X > 3 X 4 9X>X. # j % X X + @ @ @ @ @ + @ @ + @ @ @ @ @ @ @ @ @ @ @ @ @ @ ",
"X X X X X X X X X X X X X X X O + + + o + + O + + + + + X X X 4 XX~.X + X X O @ @ @ @ @ @ @ @ @ @ @ @ @ @ @ @ @ @ @ @ @ @ @ @ @ ",
"X X X X X X X X X X X X X X X + + + + o + + + + O + + O @ @ O @ ( G X @ @ @ @ @ @ + + @ @ @ @ @ @ @ @ @ @ @ @ @ @ @ @ @ @ + @ @ ",
"X X X X X X X X X X X X X X X X + + + + + o o o O O O O O O + X X X @ @ @ O @ O @ @ @ @ @ @ @ @ @ @ @ @ @ @ @ @ @ @ @ @ @ @ @ @ ",
"X X X X X X X X X X X X X X X X + + + + o o o o O O O O O + o O @ @ @ O @ @ O + @ @ @ @ @ @ @ @ @ @ @ @ @ @ @ @ @ @ @ @ @ @ @ @ ",
"X X X X X X X X X X X X X X X X X X X X X X X X o + O O O O O O O O O @ O O + + + + O + @ @ @ @ @ @ @ @ @ + + + @ @ @ @ + + @ + ",
"X X X X X X X X X X X X X X X X X X X X X X X X o O O O O O O O O O O O O O + O + + O + + + O O + + @ + + @ + + @ @ @ @ + + @ @ ",
"X X X X X X X X X X X X X X X X X X X X X X X X X O O O O O o o O O O O O O @ @ @ @ @ @ @ O O O O O + + @ @ + + @ @ @ @ @ @ @ @ ",
"X X X X X X X X X X X X X X X X X X X X X X X X X X O O O o o o O O O O O O O O @ @ + @ @ @ O O O O + + @ @ O O @ @ @ @ @ @ @ @ ",
"X X X X X X X X X X X X X X X X X X X X X X X X X X O O + + + + + + O O O O O O O O O O @ @ @ @ @ O O O @ + + @ + + + + @ @ + + ",
"X X X X X X X X X X X X X X X X X X X X X X X X X X X X O O + + + + O O O O O O O O O O @ @ @ @ @ O O O @ @ @ @ + + + + @ @ @ + ",
"X X X X X X X X X X X X X X X X X X X X X X X X X X X X X O + + + + o o O O + O O O O O O O O O O @ O O O O @ @ O O @ @ @ @ + + ",
"X X X X X X X X X X X X X X X X X X X X X X X X X X X X X + + + + + o + O O O + X O O O O O O O O @ O O @ @ @ @ O O @ @ @ @ + O ",
"X X X X X X X X X X X X X X X O X X X X X X X X X X X X X X X X O O O O O O O O O O O O O O O O O O O O O O O O O O O O O O O O ",
"X X O X X X X X X X O X X X X X X X X X X X X X X X X X X X X X X X X X X O O O O O O O O O O O O O O O O O O O O O O O O O O O "
};
