/* XPM */
static char *_493c0f862924274ef78a1341d69c65aBef4iGo0pzHSWMtq[] = {
/* columns rows colors chars-per-pixel */
"16 16 185 2 ",
"   c #00102A",
".  c #00122B",
"X  c #00142E",
"o  c #011730",
"O  c #001933",
"+  c #001B33",
"@  c #001D36",
"#  c #011E3A",
"$  c #00213B",
"%  c #01233D",
"&  c #00253F",
"*  c #002640",
"=  c #002841",
"-  c #012A43",
";  c #012B45",
":  c #002D47",
">  c #000F2A",
",  c #00132D",
"<  c #001630",
"1  c #001832",
"2  c #001C36",
"3  c #021E39",
"4  c #02203A",
"5  c #00213C",
"6  c #01243D",
"7  c #002741",
"8  c #012943",
"9  c #012A45",
"0  c #010D29",
"q  c #00112B",
"w  c #011631",
"e  c #001A33",
"r  c #011E36",
"t  c #001A34",
"y  c #001834",
"u  c #04233D",
"i  c #01233C",
"p  c #01233E",
"a  c #00253E",
"s  c #002641",
"d  c #002842",
"f  c #000C27",
"g  c #010D27",
"h  c #011731",
"j  c #000B26",
"k  c #0F263D",
"l  c #233C51",
"z  c #000E2A",
"x  c #001A35",
"c  c #03243D",
"v  c #00223B",
"b  c #00243E",
"n  c #010A25",
"m  c #000B25",
"M  c #000E28",
"N  c #01112B",
"B  c #031731",
"V  c #035264",
"C  c #2F6675",
"Z  c #6A7A86",
"A  c #4E6272",
"S  c #233C53",
"D  c #001530",
"F  c #03223C",
"G  c #00213A",
"H  c #010924",
"J  c #000D28",
"K  c #01132C",
"L  c #0D7582",
"P  c #195667",
"I  c #224357",
"U  c #617887",
"Y  c #294054",
"T  c #7A8A96",
"R  c #2C4359",
"E  c #001431",
"W  c #03213B",
"Q  c #00203A",
"!  c #01203A",
"~  c #010823",
"^  c #010D28",
"/  c #00001D",
"(  c #005466",
")  c #0D4C60",
"_  c #9D939F",
"`  c #1C384D",
"'  c #89AAB2",
"]  c #698F9B",
"[  c #577180",
"{  c #6E818F",
"}  c #06213A",
"|  c #001B34",
" . c #011D37",
".. c #011E37",
"X. c #000821",
"o. c #000925",
"O. c #090F2A",
"+. c #0C4658",
"@. c #304055",
"#. c #A2B3BD",
"$. c #5396A0",
"%. c #72929E",
"&. c #7A939F",
"*. c #748C98",
"=. c #475769",
"-. c #25374D",
";. c #00152E",
":. c #011B34",
">. c #000820",
",. c #010923",
"<. c #395064",
"1. c #647C8E",
"2. c #628292",
"3. c #678A99",
"4. c #4FB2B7",
"5. c #698693",
"6. c #768E9B",
"7. c #7EA9B3",
"8. c #688997",
"9. c #507082",
"0. c #041C36",
"q. c #001731",
"w. c #011832",
"e. c #01061F",
"r. c #00071F",
"t. c #00021E",
"y. c #0D475A",
"u. c #00001C",
"i. c #315066",
"p. c #5BAEB6",
"a. c #47697A",
"s. c #18A5AC",
"d. c #0F6878",
"f. c #044859",
"g. c #00233A",
"h. c #00102B",
"j. c #001531",
"k. c #00152F",
"l. c #01061E",
"z. c #000A22",
"x. c #00001A",
"c. c #0B4157",
"v. c #0E4E61",
"b. c #1B2F46",
"n. c #498290",
"m. c #4C7484",
"M. c #004558",
"N. c #06253B",
"B. c #0D737F",
"V. c #02102A",
"C. c #00112C",
"Z. c #01061D",
"A. c #01071E",
"S. c #000823",
"D. c #00001B",
"F. c #0C4C5F",
"G. c #0B5566",
"H. c #204459",
"J. c #596778",
"K. c #003E54",
"L. c #0B7381",
"P. c #011A33",
"I. c #000924",
"U. c #01102A",
"Y. c #000921",
"T. c #000018",
"R. c #002239",
"E. c #183D53",
"W. c #3A5165",
"Q. c #002C44",
"!. c #030E29",
"~. c #000723",
"^. c #000E27",
"/. c #01071F",
"(. c #010921",
"). c #00021D",
"_. c #000622",
"`. c #010B26",
"'. c #010820",
"]. c #010822",
"[. c #010824",
"{. c #010925",
"}. c #000721",
"|. c #000722",
" X c white",
/* pixels */
"  . X o O + @ # $ % & * = - ; : ",
">   , < 1 + 2 3 4 5 6 & * 7 8 9 ",
"0 > q X w e r t y u i p a & s d ",
"f g > . < h j k l z x c v i b b ",
"n m M N   B V C Z A S D F G v v ",
"H n f J K L P I U Y T R E W Q ! ",
"~ H ^ / ( ) _ ` ' ] [ { } |  ...",
"X.~ o.O.+.@.#.$.%.&.*.=.-.;.:.| ",
">.,./ <.1.2.3.4.5.6.7.8.9.0.q.w.",
"e.r.~ t.y.u.i.p.a.s.d.f.g.h.j.k.",
"l.l.z.x.c.v.b.n.m.M.N.B.V.q C.. ",
"Z.Z.A.S.D.F.G.H.J.K.L.P.I.U.>   ",
"Z.Z.Z.r.Y.T.R.E.W.Q.!.~.^.f J M ",
"Z.Z.Z.Z./.(.D.)._.D.H `.n m j j ",
"Z.Z.Z.Z.Z.Z.'.(.].I.S.[.[.H {.{.",
"Z.Z.Z.Z.Z.Z.Z.A.>.}.}.|.~.S.S.S."
};
