/* XPM */
static char *e88eedd4d10b4bbfe2463bb8e2f17cf77lpBivrvTLc3fMcU[] = {
/* columns rows colors chars-per-pixel */
"32 32 153 2 ",
"   c #000004",
".  c #00000B",
"X  c #000014",
"o  c #01051D",
"O  c #000722",
"+  c #010A24",
"@  c #000E29",
"#  c #0A1027",
"$  c #00122C",
"%  c #0C142C",
"&  c #00182F",
"*  c #001631",
"=  c #011B34",
"-  c #021E39",
";  c #002037",
":  c #0A2337",
">  c #01233C",
",  c #0C223A",
"<  c #12233B",
"1  c #14283E",
"2  c #1F283F",
"3  c #002741",
"4  c #012A44",
"5  c #0C2A43",
"6  c #002F48",
"7  c #0D2D48",
"8  c #1A2A41",
"9  c #02334A",
"0  c #0C334A",
"q  c #103047",
"w  c #17354B",
"e  c #1D364C",
"r  c #033D52",
"t  c #0C3D52",
"y  c #1E3F53",
"u  c #143C52",
"i  c #222E45",
"p  c #332C43",
"a  c #32354B",
"s  c #293E53",
"d  c #084156",
"f  c #03445A",
"g  c #04495F",
"h  c #194054",
"j  c #184658",
"k  c #154154",
"l  c #26485B",
"z  c #364054",
"x  c #344A5E",
"c  c #004F64",
"v  c #0F4D63",
"b  c #06576A",
"n  c #095767",
"m  c #1C5165",
"M  c #395566",
"N  c #006675",
"B  c #0F6776",
"V  c #036976",
"C  c #0C707D",
"Z  c #306574",
"A  c #346977",
"S  c #425869",
"D  c #645D6E",
"F  c #546575",
"G  c #0A7E8B",
"H  c #107A8C",
"J  c #1C7D8A",
"K  c #367083",
"L  c #3D748A",
"P  c #377889",
"I  c #3E7C8D",
"U  c #4F6C80",
"Y  c #437F8D",
"T  c #407C91",
"R  c #677E91",
"E  c #028190",
"W  c #0F8490",
"Q  c #068F97",
"!  c #0E8D96",
"~  c #0F9199",
"^  c #209098",
"/  c #149CA8",
"(  c #00A5AA",
")  c #0AA6AD",
"_  c #0FA9AE",
"`  c #11A2AB",
"'  c #18A4AC",
"]  c #0AAFB3",
"[  c #12ADB4",
"{  c #0EB5BA",
"}  c #1FB6BD",
"|  c #13BABD",
" . c #18BEBE",
".. c #2AA4AB",
"X. c #2BB1B5",
"o. c #449CA2",
"O. c #7D94A4",
"+. c #4DA0AA",
"@. c #43ABB3",
"#. c #75B2B9",
"$. c #0DC3C7",
"%. c #04D2D2",
"&. c #24C0C2",
"*. c #27CAC9",
"=. c #53CCCA",
"-. c #74C1C7",
";. c #7BEEED",
":. c #67E9E7",
">. c #87929E",
",. c #8799A5",
"<. c #8A9AAA",
"1. c #919DA6",
"2. c #94A7AE",
"3. c #98A3AD",
"4. c #95A6B1",
"5. c #9AA7B1",
"6. c #94AAB6",
"7. c #87B1B9",
"8. c #A2ABB5",
"9. c #ACAFB9",
"0. c #A5B3BC",
"q. c #AFB5BF",
"w. c #ADBDC4",
"e. c #A5BCC3",
"r. c #B2BCC4",
"t. c #B9BEC5",
"y. c #88C0C8",
"u. c #ABC0C7",
"i. c #AFC8CD",
"p. c #ACC3CB",
"a. c #BBC4CC",
"s. c #B5C8CE",
"d. c #BDC8CF",
"f. c #B4CBD1",
"g. c #BBCCD3",
"h. c #AED7DC",
"j. c #B5D2D6",
"k. c #B7D3D9",
"l. c #8CE5E6",
"z. c #85FFFF",
"x. c #BEE2E5",
"c. c #C2C9D0",
"v. c #C9CFD5",
"b. c #C4D1D6",
"n. c #C7D5DA",
"m. c #CBD2D8",
"M. c #CCDDDF",
"N. c #D0D7DD",
"B. c #D4D9DD",
"V. c #C6DCE0",
"C. c #C8DFE2",
"Z. c #CEEBED",
"A. c #E7F0F2",
/* pixels */
"$ $ $ $ $ $ $ * * * * = = - - > > > > > > > 3 3 3 3 3 6 6 6 6 6 ",
"$ $ $ $ $ $ $ * * * = = = - - - > > > > > > > 3 3 3 3 3 3 3 6 6 ",
"@ @ $ $ $ * * * * * = = = - - - - > > > > > > > 3 3 3 3 3 4 4 6 ",
"@ @ $ $ $ $ $ $ * * = = = - - = - > > > > > > > > 3 3 3 3 3 4 4 ",
"@ @ @ $ $ $ $ $ * * * = * = = = - - > > > > > > > > > 3 3 3 4 3 ",
"@ @ @ @ @ $ $ $ * * * = * * = = - - - > > > > > > > > > > > 3 3 ",
"@ @ @ @ @ $ $ $ $ * * * * * = * $ = > - > > > > > > > > > > > 3 ",
"@ @ @ @ @ $ $ $ $ * * * = * + e 1.& $ - > > > > > > > > > > > > ",
"+ + + @ @ @ $ $ $ $ * * O , t l M.1 x * @ > - > > > > > > > > > ",
"+ + + @ @ @ @ $ $ $ @ $ J &.W y f.8 r.v.F @ - - - > > > > > > > ",
"+ + + + @ @ @ $ $ @ - | Q > @ h g.= * M b.5.$ - - - > > > > > > ",
"+ + + + + @ @ @ $ $ | N p z $ u f.% = $ o 0.3.@ > - - - - - > > ",
"+ + + + + + @ $ o G ~   d.t.$ 0 Z.b.i.C.>.$ n.F @ - = = - - = - ",
"+ + + + + + @ + * ] 5 * m.a.+ > j.A I f h.S x a.@ = * = = = = = ",
"+ O + + + + @ o n ~ o 8 V.w.1 +.e.2 c.D B.x > v.s $ = = = = = = ",
"O + O + + + O X @ ; o a k.6.Z z.g.e Z.#.y.2.o i $ O * * = * * * ",
"O + o O + o i 0.8.8.5.N.7.<.o.X.t.w f.% w A.r.4.0.,.* * * * * * ",
"+ + o O + O , T L L I T 9 <.=.V 9.q x.f.a.-.P L I K * * * * * * ",
"o o + o O + o . $ : o o X O.:.c q.0 *.b E ( X 4 + o * * * * * * ",
"o o o o + O + o d ..o , o R ;.r w.5 %._ ! 0 >  .5 @ $ * $ $ $ $ ",
"o o o o + O O + o / j + @ U l.6 r.7 { O + @ C ! o $ $ $ $ $ $ $ ",
"o o o o O O O + o 6 } < o m @.> u.5 [ * @ r | = + $ $ $ $ $ $ $ ",
"o o o o o + O O + X g } w o o 5 p.# $ O b $.9 O $ @ @ $ $ $ $ $ ",
"o o o o o o O O O + X 9 ' ^ k 5 u.% v ` ) > o $ @ @ @ @ @ @ @ $ ",
"o o o o o o + + O O + X o n B 5 s.< H f o O @ @ @ @ @ @ @ @ @ @ ",
"o o o o o o o o + + + + + X X = Y + X o + @ + @ + @ @ @ @ @ @ @ ",
"o o o o o o o o o + + + + + + O o + + + + + + + + + + + + @ @ @ ",
"o o o o o o o o o o o o O O O O + + + + + + + + + + + + + + + + ",
"o o o o o o o o o o o o o O O + O O O + + + + + + + + + + + + + ",
"o o o o o o o o o o o o o o O + + O O O O O + + + + + + + + + + ",
"o o o o o o o o o o o o o o o + + + O O O O O O O + + + + + + + ",
"o o o o o o o o o o o o o o o o o O O O O O O O O O O O O O O + "
};
